<?xml version="1.0" encoding="utf-8"?>
<!-- Generator: Adobe Illustrator 24.2.1, SVG Export Plug-In . SVG Version: 6.00 Build 0)  -->
<svg version="1.1" xmlns="http://www.w3.org/2000/svg" xmlns:xlink="http://www.w3.org/1999/xlink" x="0px" y="0px"
	 viewBox="0 0 497.46 170.23" style="enable-background:new 0 0 497.46 170.23;" xml:space="preserve">
<style type="text/css">
	.st0{fill:#F5A26C;}
	.st1{fill:#EE754D;}
	.st2{fill:#FCCB8D;}
	.st3{fill:#E52329;}
	.st4{fill:#AE0F0A;}
</style>
<g id="Laag_1">
	<g>
		<path class="st0" d="M68.48,80.07c-4.01-0.1-7.87-0.32-11.58-0.62c-4.64,6.49-10.55,13.13-17.94,19.86
			c3.6,8.6,10.59,16.07,19.79,21.56c4.49-4.69,9.43-8.47,14.71-11.47c-3.92-5-6.36-11.22-6.62-18.05
			C66.68,87.4,67.28,83.6,68.48,80.07z"/>
		<path class="st1" d="M49.01,70.42c-7.04-0.58-13.54-1.47-19.43-2.54c-0.81,2.92-1.23,5.95-1.23,9.05c0,4.65,0.95,9.13,2.72,13.34
			C38.45,83.56,44.36,76.91,49.01,70.42z"/>
		<path class="st1" d="M124.73,106.43c4.6,0,9.24,0.26,13.88,0.75c-3.55-9.24-5.61-17.75-6.62-25.5c-1.22,0.27-2.43,0.51-3.64,0.76
			c0.53,2.09,0.85,4.26,0.94,6.49C129.54,95.33,127.84,101.35,124.73,106.43z"/>
		<path class="st2" d="M165.16,111.02c3.36-5.58,5.24-11.77,5.24-18.29c0-6.78-2.03-13.21-5.66-18.97
			c-9.75,3.35-19.18,5.95-28.24,7.92c1,7.75,3.07,16.26,6.62,25.5C150.54,107.96,157.95,109.31,165.16,111.02z"/>
		<path class="st2" d="M71.73,73.32c4.47-6.98,11.64-12.1,20.11-13.81c0.8-9.66,2.39-17.96,4.29-24.92
			c-7.98,0.21-15.55,1.58-22.44,3.91c-1.58,10.55-5.89,22.1-14.54,34.18C63.17,73.01,67.37,73.22,71.73,73.32z"/>
		<path class="st3" d="M66.93,28.35c-17.19,5.8-30.06,17.49-33.96,31.65c5.89,1.07,12.39,1.96,19.43,2.54
			C61.03,50.45,65.34,38.9,66.93,28.35z"/>
		<path class="st1" d="M125.99,76.13c1.98-0.38,3.98-0.77,6-1.21c-1.46-11.3-0.68-20.96,1.02-28.82
			c-8.08-3.05-17.21-4.77-26.88-4.77c-0.71,0-1.41,0.02-2.11,0.04c-1.4,5.14-2.64,11.02-3.51,17.63
			C111.62,59.85,121.18,66.55,125.99,76.13z"/>
		<path class="st3" d="M167,66.99c-5.69-9.04-15.31-16.41-27.21-20.9c-1.7,7.86-2.49,17.52-1.02,28.82
			C147.82,72.95,157.25,70.35,167,66.99z"/>
		<path class="st1" d="M63.26,128.76c10.15,6.05,22.98,9.69,36.96,9.74c-1.49-5.95-2.68-11.67-3.63-17.15
			c-5.95-0.28-11.48-2.22-16.13-5.39C74.23,119.14,68.44,123.34,63.26,128.76z"/>
		<path class="st3" d="M101.63,121.17c1.03,6.56,2.41,13.46,4.22,20.71c0.1,0,0.19,0.01,0.29,0.01c12.2,0,23.54-2.74,32.99-7.43
			l12.47,3.03c-5.66-9.13-9.89-17.74-12.99-25.8c-5.78-0.61-11.57-0.87-17.28-0.7C116.37,116.52,109.46,120.28,101.63,121.17z"/>
		<path class="st0" d="M164.03,114.41c-7.21-1.71-14.61-3.06-22.03-3.85c3.1,8.07,7.33,16.68,12.99,25.8l8.23,2l-7.55-13.9
			C159.03,121.43,161.84,118.04,164.03,114.41z"/>
		<circle class="st4" cx="98.06" cy="90.14" r="17.6"/>
		<g>
			<path class="st3" d="M245.39,111.53h4.58c2.35,0,3.95,1.32,3.95,3.43c0,2.41-1.82,3.51-4.01,3.51h-2.13v4.14h-2.4V111.53z
				 M247.79,116.56h1.83c1.11,0,1.89-0.43,1.89-1.56c0-1.14-0.83-1.57-1.84-1.57h-1.88V116.56z"/>
			<path class="st3" d="M270.91,118.17v4.43h-2.34v-11.08h4.87c2.42,0,3.72,1.33,3.72,3.04c0,1.49-0.81,2.29-1.61,2.62
				c0.55,0.2,1.38,0.77,1.38,2.76v0.55c0,0.75,0.01,1.59,0.16,2.11h-2.27c-0.19-0.48-0.23-1.31-0.23-2.49v-0.16
				c0-1.21-0.31-1.78-2.09-1.78H270.91z M270.91,116.27h2.01c1.31,0,1.82-0.5,1.82-1.42c0-0.9-0.59-1.41-1.76-1.41h-2.07V116.27z"/>
			<path class="st3" d="M302.32,117.03c0,3.08-1.85,5.74-5.45,5.74c-3.48,0-5.3-2.53-5.3-5.7c0-3.22,2.01-5.7,5.45-5.7
				C300.26,111.37,302.32,113.64,302.32,117.03z M294.05,117.02c0,2.16,0.95,3.8,2.91,3.8c2.13,0,2.88-1.78,2.88-3.76
				c0-2.1-0.86-3.74-2.92-3.74C294.92,113.32,294.05,114.86,294.05,117.02z"/>
			<path class="st3" d="M320.53,119.06c0,2.55-0.83,3.71-3.25,3.71c-0.41,0-1.12-0.03-1.5-0.14v-1.9c0.2,0.03,0.75,0.07,1.09,0.07
				c1.1,0,1.26-0.73,1.26-1.58v-7.68h2.4V119.06z"/>
			<path class="st3" d="M343.57,117.83h-5.3v2.81h5.84l-0.28,1.96h-7.88v-11.08h7.85v1.96h-5.53v2.37h5.3V117.83z"/>
			<path class="st3" d="M368.25,119.19c-0.45,2.07-2,3.57-4.78,3.57c-3.51,0-5.17-2.49-5.17-5.64c0-3.04,1.71-5.76,5.29-5.76
				c2.95,0,4.38,1.73,4.65,3.58h-2.4c-0.23-0.85-0.83-1.7-2.33-1.7c-1.98,0-2.74,1.78-2.74,3.79c0,1.87,0.66,3.85,2.8,3.85
				c1.56,0,2.06-1.05,2.26-1.69H368.25z"/>
			<path class="st3" d="M385.38,113.49h-3.37v-1.96h9.12v1.96h-3.35v9.11h-2.4V113.49z"/>
			<path class="st3" d="M407.3,119.36c0.25,1.11,1.05,1.6,2.33,1.6c1.28,0,1.83-0.51,1.83-1.32c0-0.9-0.53-1.29-2.43-1.73
				c-3.01-0.71-3.76-1.8-3.76-3.3c0-1.93,1.44-3.24,4.07-3.24c2.94,0,4.11,1.58,4.27,3.2h-2.41c-0.12-0.68-0.49-1.42-1.92-1.42
				c-0.97,0-1.56,0.4-1.56,1.19c0,0.77,0.47,1.08,2.26,1.5c3.22,0.76,3.93,1.96,3.93,3.52c0,2.02-1.53,3.41-4.46,3.41
				c-2.81,0-4.29-1.38-4.56-3.4H407.3z"/>
		</g>
		<g>
			<path d="M190.38,87.38l-4.72,12.83h-2.92l13.62-37.11h3.39l14.21,37.11h-3.13l-4.82-12.83H190.38z M205.06,84.73
				c-4.13-11.03-6.25-16.33-7-18.82h-0.05c-0.9,2.81-3.29,9.38-6.63,18.82H205.06z"/>
			<path d="M220.97,92.89c0.9,3.45,3.34,5.51,7.53,5.51c4.72,0,6.63-2.17,6.63-5.14c0-3.02-1.27-4.51-7.21-5.94
				c-6.84-1.64-8.53-3.71-8.53-7.21c0-3.66,2.76-7.05,8.75-7.05s8.85,3.66,9.28,7.42h-2.65c-0.48-2.23-2.23-4.98-6.73-4.98
				c-4.61,0-5.94,2.28-5.94,4.4c0,2.44,1.27,3.66,6.52,4.93c7.47,1.8,9.33,4.24,9.33,8.22c0,4.82-3.92,7.79-9.49,7.79
				c-6.04,0-9.44-3.18-10.18-7.95H220.97z"/>
			<path d="M240.37,73.7h4.93v-8.27h2.65v8.27h6.31v2.49h-6.31v17.23c0,2.97,0.64,4.67,3.18,4.67c0.79,0,1.91-0.05,2.76-0.32v2.33
				c-0.9,0.37-2.17,0.48-3.29,0.48c-3.39,0-5.3-1.7-5.3-5.94V76.19h-4.93V73.7z"/>
			<path d="M259.19,80.91c0-4.45-0.05-6.36-0.05-7.21h2.6c0.05,0.85,0.11,2.54,0.11,5.94c1.54-3.98,4.93-6.36,9.22-6.57v2.86
				c-5.51,0.37-9.22,4.19-9.22,10.5v13.78h-2.65V80.91z"/>
			<path d="M275.94,61.14h2.65v5.14h-2.65V61.14z M275.94,73.7h2.65v26.5h-2.65V73.7z"/>
			<path d="M307.75,61.14v31.43c0,2.54,0,4.98,0.05,7.63h-2.54c-0.11-0.64-0.16-3.13-0.16-4.45c-1.33,3.23-4.29,5.09-8.91,5.09
				c-6.89,0-11.03-5.62-11.03-13.57c0-8.16,4.51-14.21,11.71-14.21c5.3,0,7.42,2.28,8.22,3.98v-15.9H307.75z M287.98,87.16
				c0,7.26,3.76,11.18,8.32,11.18c7,0,8.91-4.82,8.91-12.03c0-6.84-1.64-10.76-8.43-10.76C291.53,75.56,287.98,79.74,287.98,87.16z"
				/>
			<path d="M333.99,82.87v17.33h-2.92V63.1h13.3c7.31,0,11.18,3.92,11.18,9.75c0,4.72-2.81,7.79-6.94,8.69
				c3.82,0.9,6.36,3.39,6.36,9.7v1.43c0,2.6-0.21,6.1,0.48,7.53h-2.92c-0.69-1.59-0.53-4.56-0.53-7.74v-0.95
				c0-6.1-1.8-8.64-8.91-8.64H333.99z M333.99,80.22h8.96c6.52,0,9.54-2.44,9.54-7.32c0-4.56-2.97-7.16-8.75-7.16h-9.75V80.22z"/>
			<path d="M382.18,92.47c0,2.6,0.05,6.73,0.05,7.74h-2.54c-0.11-0.69-0.16-2.44-0.16-4.61c-1.11,3.13-3.82,5.25-8.53,5.25
				c-3.82,0-8.69-1.48-8.69-9.59V73.7h2.6v16.91c0,3.87,1.22,7.63,6.47,7.63c5.94,0,8.16-3.34,8.16-10.92V73.7h2.65V92.47z"/>
			<path d="M387.53,73.7h4.93v-8.27h2.65v8.27h6.31v2.49h-6.31v17.23c0,2.97,0.64,4.67,3.18,4.67c0.79,0,1.91-0.05,2.76-0.32v2.33
				c-0.9,0.37-2.17,0.48-3.29,0.48c-3.39,0-5.3-1.7-5.3-5.94V76.19h-4.93V73.7z"/>
			<path d="M403.07,73.7H408v-8.27h2.65v8.27h6.31v2.49h-6.31v17.23c0,2.97,0.64,4.67,3.18,4.67c0.79,0,1.91-0.05,2.76-0.32v2.33
				c-0.9,0.37-2.17,0.48-3.29,0.48c-3.39,0-5.3-1.7-5.3-5.94V76.19h-4.93V73.7z"/>
			<path d="M422.63,87.27c0.05,6.84,3.5,11.08,8.59,11.08c4.98,0,6.68-2.81,7.63-4.98h2.7c-1.11,3.5-3.92,7.47-10.44,7.47
				c-8.06,0-11.18-6.94-11.18-13.68c0-7.58,3.76-14.1,11.5-14.1c8.16,0,10.76,7.05,10.76,12.03c0,0.74,0,1.48-0.05,2.17H422.63z
				 M439.43,84.94c-0.05-5.25-2.92-9.38-8.11-9.38c-5.46,0-7.95,3.82-8.53,9.38H439.43z"/>
			<path d="M448.66,80.38c0-2.33,0-4.56-0.05-6.68h2.6c0.11,0.85,0.16,4.29,0.11,5.04c1.17-2.7,3.34-5.67,8.8-5.67
				c4.72,0,8.91,2.65,8.91,9.97v17.17h-2.65V83.45c0-4.72-1.96-7.79-6.57-7.79c-6.31,0-8.48,5.25-8.48,11.03v13.52h-2.65V80.38z"/>
		</g>
	</g>
</g>
<g id="Laag_2">
</g>
</svg>
